#N canvas 8 40 480 701 12;
#X msg 11 47 listen 3000;
#X msg 25 81 listen 0;
#X floatatom 113 153 5 0 0 0 - - -;
#X obj 11 115 netreceive 3000;
#X obj 11 12 loadbang;
#X obj 29 153 print rx;
#X obj 11 229 send pd;
#X obj 11 184 route pd can;
#X obj 77 230 send pd-can;
#N canvas 504 40 512 701 can 1;
#X restore 136 12 pd can;
#X text 194 6 <-- this subcanvas receives the messages sent by `send
pd-can`. The messages can be the same as what goes in a saved .pd file
to create and connect elements of a patch. The `pd` or `can` prefix
selects where the inbound messages go. Examples of things to send:
pd dsp 1 \; pd dsp 0 \; can obj 10 10 loadbang \; can msg 10 40 helloooo
\; can connect 0 0 1 0 \; can clear \;;
#X connect 0 0 3 0;
#X connect 1 0 3 0;
#X connect 3 0 5 0;
#X connect 3 0 7 0;
#X connect 3 1 2 0;
#X connect 4 0 0 0;
#X connect 7 0 6 0;
#X connect 7 1 8 0;
