#N canvas 8 140 1008 601 12;
#N canvas 8 140 1008 601 sub 1;
#X text 10 10 Kick thing;
#X obj 15 35 r subsend;
#X obj 15 65 list split 1;
#X obj 15 95 t b s;
#X obj 15 125 list store;
#X msg 105 125 symbol pd-\$1;
#X obj 15 155 list trim;
#X obj 80 185 send;
#X msg 15 235 \; pd dsp 0;
#X msg 105 235 \; pd dsp 1;
#X msg 15 290 \; vol 0;
#X msg 75 290 \; vol 65;
#X msg 142 290 \; vol 80;
#N canvas 0 50 450 300 clk 0;
#X array clk 11 float 3;
#A 0 0 18 0 0 0 0 0 0 0 0 0;
#X coords 0 99 11 0 75 40 2 0 0;
#X restore 215 40 pd clk;
#N canvas 0 50 450 300 adsr 0;
#X array adsr 11 float 3;
#A 0 0 84 59 47 27 20 9 2 0 0 0;
#X coords 0 99 11 0 75 40 2 0 0;
#X restore 215 110 pd adsr;
#N canvas 0 50 450 300 mids 0;
#X array mids 11 float 3;
#A 0 0 32 29 24 19 12 7 0 0 0 0;
#X coords 0 99 11 0 75 40 2 0 0;
#X restore 215 180 pd mids;
#X obj 215 245 noise~;
#X obj 215 275 *~ 0.01;
#X obj 215 305 s~ nz;
#X obj 305 25 phasor~ 2;
#X obj 305 55 *~ 8;
#X obj 305 85 +~ 1;
#X obj 305 115 s~ phase;
#X obj 305 155 r~ phase;
#X obj 305 185 tabread4~ clk;
#X obj 324 215 r~ nz;
#X obj 305 245 *~;
#X obj 305 275 lop~ 1287;
#X obj 305 305 throw~ mainLR;
#X obj 415 125 r~ phase;
#X obj 415 155 tabread4~ adsr;
#X obj 415 185 *~ 0.015;
#X obj 434 215 osc~ 55;
#X obj 415 245 *~;
#X obj 415 275 lop~ 400;
#X obj 415 305 throw~ mainLR;
#X obj 535 125 r~ phase;
#X obj 535 155 tabread4~ mids;
#X obj 595 185 *~ 3;
#X obj 535 185 noise~;
#X obj 535 215 vcf~ 110 2;
#X obj 535 245 *~;
#X obj 535 275 *~ 5;
#X obj 535 305 throw~ mainLR;
#X msg 385 25 \; clk 0 0 18 0 0 0 0 0 0 0 0 0 \; adsr 0 0 84 59 47
27 20 9 2 0 0 0 \; mids 0 0 32 29 24 19 12 7 0 0 0 0;
#X connect 1 0 2 0;
#X connect 2 0 3 0;
#X connect 2 1 4 1;
#X connect 3 0 4 0;
#X connect 3 1 5 0;
#X connect 4 0 6 0;
#X connect 5 0 7 1;
#X connect 6 0 7 0;
#X connect 16 0 17 0;
#X connect 17 0 18 0;
#X connect 19 0 20 0;
#X connect 20 0 21 0;
#X connect 21 0 22 0;
#X connect 23 0 24 0;
#X connect 24 0 26 0;
#X connect 25 0 26 1;
#X connect 26 0 27 0;
#X connect 27 0 28 0;
#X connect 29 0 30 0;
#X connect 30 0 31 0;
#X connect 31 0 33 0;
#X connect 32 0 33 1;
#X connect 32 0 41 0;
#X connect 33 0 34 0;
#X connect 34 0 35 0;
#X connect 36 0 37 0;
#X connect 37 0 38 0;
#X connect 38 0 40 1;
#X connect 39 0 40 0;
#X connect 40 0 41 1;
#X connect 41 0 42 0;
#X connect 42 0 43 0;
#X restore 146 10 pd sub;
#X text 208 5 <-- this subcanvas receives messages sent by `send pd-sub`
to create and connect objects using the same syntax as .pd files.;
#X text 285 80 Volume control;
#X obj 290 105 receive vol;
#X obj 290 135 clip 0 99;
#X floatatom 290 165 5 0 0 0 - - -;
#X obj 290 195 dbtorms;
#X obj 290 285 send mainVol;
#X text 425 80 Main Mix (stereo);
#X obj 430 105 catch~ mainL;
#X obj 448 135 catch~ mainLR;
#X obj 466 165 catch~ mainR;
#X obj 484 195 r mainVol;
#X obj 430 232 *~;
#X obj 466 232 *~;
#X obj 431 273 dac~;
#X text 7 6 Network Listener;
#X obj 12 31 loadbang;
#X msg 12 61 listen 3000;
#X msg 22 91 listen 0;
#X obj 12 121 netreceive 3000;
#X obj 22 151 print rx;
#X floatatom 114 151 5 0 0 0 - - -;
#X obj 12 181 route pd send vol;
#X obj 128 207 send pd-sub;
#X obj 89 233 send vol;
#X obj 50 259 send subsend;
#X obj 12 285 send pd;
#X obj 290 255 line 0 5;
#X msg 290 225 \$1 70;
#X obj 472 303 env~;
#X obj 472 333 - 100;
#X obj 472 363 s mainVU;
#X obj 472 273 max~;
#X obj 571 107 vu 15 120 mainVU empty -1 -8 0 10 -66577 -1 1 0;
#X connect 3 0 4 0;
#X connect 4 0 5 0;
#X connect 5 0 6 0;
#X connect 6 0 29 0;
#X connect 9 0 13 0;
#X connect 10 0 13 0;
#X connect 10 0 14 0;
#X connect 11 0 14 0;
#X connect 12 0 13 1;
#X connect 12 0 14 1;
#X connect 13 0 15 0;
#X connect 13 0 33 0;
#X connect 14 0 15 1;
#X connect 14 0 33 1;
#X connect 17 0 18 0;
#X connect 18 0 20 0;
#X connect 19 0 20 0;
#X connect 20 0 21 0;
#X connect 20 0 23 0;
#X connect 20 1 22 0;
#X connect 23 0 27 0;
#X connect 23 1 26 0;
#X connect 23 2 25 0;
#X connect 23 3 24 0;
#X connect 28 0 7 0;
#X connect 29 0 28 0;
#X connect 30 0 31 0;
#X connect 31 0 32 0;
#X connect 33 0 30 0;
