#N canvas 8 86 1008 655 12;
#N canvas 8 86 1008 655 sub 1;
#X text 10 10 Tone generator;
#X obj 15 35 osc~ 440;
#X obj 15 65 throw~ mainLR;
#X msg 15 110 \; pd dsp 0;
#X msg 105 110 \; pd dsp 1;
#X msg 15 165 \; vol 0;
#X msg 75 165 \; vol 65;
#X msg 142 165 \; vol 80;
#X connect 1 0 2 0;
#X restore 146 10 pd sub;
#X text 208 5 <-- this subcanvas receives messages sent by `send pd-sub`
to create and connect objects using the same syntax as .pd files.;
#X text 285 80 Volume control;
#X obj 290 105 receive vol;
#X obj 290 135 clip 0 99;
#X floatatom 290 165 5 0 0 0 - - -;
#X obj 290 195 dbtorms;
#X obj 290 285 send mainVol;
#X text 425 80 Main Mix (stereo);
#X obj 430 105 catch~ mainL;
#X obj 448 135 catch~ mainLR;
#X obj 466 165 catch~ mainR;
#X obj 484 195 r mainVol;
#X obj 430 232 *~;
#X obj 466 232 *~;
#X obj 441 263 dac~;
#X text 7 6 Network Listener;
#X obj 12 31 loadbang;
#X msg 12 61 listen 3000;
#X msg 22 91 listen 0;
#X obj 12 121 netreceive 3000;
#X obj 22 151 print rx;
#X floatatom 114 151 5 0 0 0 - - -;
#X obj 12 181 route pd send vol;
#X obj 128 207 send pd-sub;
#X obj 89 233 send vol;
#X obj 50 259 send subsend;
#X obj 12 285 send pd;
#X obj 290 255 line 0 5;
#X msg 290 225 \$1 70;
#X connect 3 0 4 0;
#X connect 4 0 5 0;
#X connect 5 0 6 0;
#X connect 6 0 29 0;
#X connect 9 0 13 0;
#X connect 10 0 13 0;
#X connect 10 0 14 0;
#X connect 11 0 14 0;
#X connect 12 0 13 1;
#X connect 12 0 14 1;
#X connect 13 0 15 0;
#X connect 14 0 15 1;
#X connect 17 0 18 0;
#X connect 18 0 20 0;
#X connect 19 0 20 0;
#X connect 20 0 21 0;
#X connect 20 0 23 0;
#X connect 20 1 22 0;
#X connect 23 0 27 0;
#X connect 23 1 26 0;
#X connect 23 2 25 0;
#X connect 23 3 24 0;
#X connect 28 0 7 0;
#X connect 29 0 28 0;
