#N canvas 8 86 1008 655 12;
#N canvas 8 86 1008 655 sub 1;
#X text 10 10 Kick thing;
#X msg 15 40 \; dsp 0;
#X msg 15 85 \; dsp 1;
#X msg 15 130 \; vol 0;
#X msg 15 175 \; vol 72;
#X msg 15 220 \; vol 84;
#N canvas 0 50 450 300 clk 0;
#X array clk 11 float 3;
#A 0 0 18 0 0 0 0 0 0 0 0 0;
#X coords 0 99 11 0 75 40 2 0 0;
#X restore 95 55 pd clk;
#N canvas 0 50 450 300 adsr 0;
#X array adsr 11 float 3;
#A 0 0 84 59 47 27 20 9 2 0 0 0;
#X coords 0 99 11 0 75 40 2 0 0;
#X restore 95 125 pd adsr;
#N canvas 0 50 450 300 mids 0;
#X array mids 11 float 3;
#A 0 0 32 29 24 19 12 7 0 0 0 0;
#X coords 0 99 11 0 75 40 2 0 0;
#X restore 95 195 pd mids;
#X obj 95 260 noise~;
#X obj 95 290 *~ 0.01;
#X obj 95 320 s~ nz;
#X obj 185 40 phasor~ 2;
#X obj 185 70 *~ 8;
#X obj 185 100 +~ 1;
#X obj 185 130 s~ phase;
#X obj 185 170 r~ phase;
#X obj 185 200 tabread4~ clk;
#X obj 204 230 r~ nz;
#X obj 185 260 *~;
#X obj 185 290 lop~ 1287;
#X obj 185 320 throw~ mainLR;
#X obj 295 140 r~ phase;
#X obj 295 170 tabread4~ adsr;
#X obj 295 200 *~ 0.015;
#X obj 314 230 osc~ 55;
#X obj 295 260 *~;
#X obj 295 290 lop~ 400;
#X obj 295 320 throw~ mainLR;
#X obj 415 140 r~ phase;
#X obj 415 170 tabread4~ mids;
#X obj 475 200 *~ 3;
#X obj 415 200 noise~;
#X obj 415 230 vcf~ 110 2;
#X obj 415 260 *~;
#X obj 415 290 *~ 5;
#X obj 415 320 throw~ mainLR;
#X msg 265 40 \; clk 0 0 18 0 0 0 0 0 0 0 0 0 \; adsr 0 0 84 59 47
27 20 9 2 0 0 0 \; mids 0 0 32 29 24 19 12 7 0 0 0 0;
#X connect 9 0 10 0;
#X connect 10 0 11 0;
#X connect 12 0 13 0;
#X connect 13 0 14 0;
#X connect 14 0 15 0;
#X connect 16 0 17 0;
#X connect 17 0 19 0;
#X connect 18 0 19 1;
#X connect 19 0 20 0;
#X connect 20 0 21 0;
#X connect 22 0 23 0;
#X connect 23 0 24 0;
#X connect 24 0 26 0;
#X connect 25 0 26 1;
#X connect 25 0 34 0;
#X connect 26 0 27 0;
#X connect 27 0 28 0;
#X connect 29 0 30 0;
#X connect 30 0 31 0;
#X connect 31 0 33 1;
#X connect 32 0 33 0;
#X connect 33 0 34 1;
#X connect 34 0 35 0;
#X connect 35 0 36 0;
#X restore 146 10 pd sub;
#X text 208 5 <-- this subcanvas receives messages sent by `send pd-sub`
to create and connect objects using the same syntax as .pd files.;
#X text 285 80 Volume control;
#X obj 290 105 receive vol;
#X obj 290 135 clip 0 99;
#X floatatom 290 165 5 0 0 0 - - -;
#X obj 290 195 dbtorms;
#X obj 290 285 send mainVol;
#X text 425 80 Main Mix (stereo);
#X obj 430 105 catch~ mainL;
#X obj 448 135 catch~ mainLR;
#X obj 466 165 catch~ mainR;
#X obj 484 195 r mainVol;
#X obj 430 232 *~;
#X obj 466 232 *~;
#X obj 431 273 dac~;
#X text 7 6 Network Listener;
#X obj 12 31 loadbang;
#X msg 12 61 listen 3000;
#X msg 22 91 listen 0;
#X obj 12 121 netreceive 3000;
#X obj 22 151 print rx;
#X floatatom 114 151 5 0 0 0 - - -;
#X obj 290 255 line 0 5;
#X msg 290 225 \$1 70;
#X obj 472 303 env~;
#X obj 472 333 - 100;
#X obj 472 363 s mainVU;
#X obj 472 273 max~;
#X obj 571 107 vu 15 120 mainVU empty -1 -8 0 10 -66577 -1 1 0;
#X obj 53 258 list split 1;
#X obj 53 288 t b s;
#X obj 26 318 list store;
#X msg 111 318 symbol pd-\$1;
#X obj 26 348 list trim;
#X obj 86 378 send;
#X obj 12 212 s vol;
#X obj 156 212 s pd-sub;
#X obj 12 181 route vol send dsp;
#X text 10 403 "route vol send dsp": This makes it so incoming messages
can be more concise than the "\\\; destination ..." format for msg
boxes. "vol 0" becomes "\\\; vol 0" \, "dsp 1" becomes "\\\; pd dsp
1" \, "send foo ..." becomes "\\\; pd-foo ...". All other messages
\, like "..." \, become "\\\; pd-sub ...". Note that no prefix is needed
to send messages to pd-sub \, which is the whole point \, since that
happens very frequently.;
#X obj 156 181 r dsp;
#X msg 71 212 \; pd dsp \$1;
#X connect 3 0 4 0;
#X connect 4 0 5 0;
#X connect 5 0 6 0;
#X connect 6 0 24 0;
#X connect 9 0 13 0;
#X connect 10 0 13 0;
#X connect 10 0 14 0;
#X connect 11 0 14 0;
#X connect 12 0 13 1;
#X connect 12 0 14 1;
#X connect 13 0 15 0;
#X connect 13 0 28 0;
#X connect 14 0 15 1;
#X connect 14 0 28 1;
#X connect 17 0 18 0;
#X connect 18 0 20 0;
#X connect 19 0 20 0;
#X connect 20 0 21 0;
#X connect 20 0 38 0;
#X connect 20 1 22 0;
#X connect 23 0 7 0;
#X connect 24 0 23 0;
#X connect 25 0 26 0;
#X connect 26 0 27 0;
#X connect 28 0 25 0;
#X connect 30 0 31 0;
#X connect 30 1 32 1;
#X connect 31 0 32 0;
#X connect 31 1 33 0;
#X connect 32 0 34 0;
#X connect 33 0 35 1;
#X connect 34 0 35 0;
#X connect 38 0 36 0;
#X connect 38 1 30 0;
#X connect 38 2 41 0;
#X connect 38 3 37 0;
#X connect 40 0 41 0;
