#N canvas 8 104 1008 637 12;
#N canvas 8 104 1008 637 sub 1;
#X text 10 10 Kick thing;
#X msg 15 40 \; dsp 0;
#X msg 15 85 \; dsp 1;
#X msg 15 130 \; vol 0;
#X msg 15 175 \; vol 72;
#X msg 15 220 \; vol 84;
#N canvas 0 50 450 300 adsr 0;
#X array adsr 11 float 2;
#X coords 0 99 11 0 75 40 1;
#X restore 95 55 pd adsr;
#N canvas 0 50 450 300 mids 0;
#X array mids 11 float 2;
#X coords 0 99 11 0 75 40 1;
#X restore 95 115 pd mids;
#X obj 95 170 r rst;
#X msg 95 200 seed 1083;
#X obj 95 230 noise~;
#X obj 95 260 s~ nz;
#X msg 185 15 \; adsr 0 82 82 79 76 69 54 29 14 0 0 0 \; mids 0 71
69 62 44 30 22 17 14 0 0 0 \; metro bang;
#X obj 185 95 r metro;
#X obj 185 125 metro 800;
#X obj 210 155 t b b b;
#X msg 185 185 8 100;
#X msg 233 215 1;
#X obj 246 185 s rst;
#X obj 185 245 line~;
#X obj 185 275 s~ phase;
#X obj 305 95 r~ phase;
#X obj 305 125 tabread4~ adsr;
#X obj 305 155 *~ 0.005;
#X obj 312 193 r rst;
#X msg 312 218 0.17;
#X obj 312 245 osc~ 55;
#X obj 305 275 *~;
#X obj 305 305 throw~ kick;
#X obj 425 95 r~ phase;
#X obj 425 125 tabread4~ mids;
#X obj 475 155 *~ 1.71;
#X obj 425 155 r~ nz;
#X obj 425 185 vcf~ 27;
#X obj 425 215 *~;
#X obj 425 245 *~ 35;
#X obj 425 275 lop~ 1472;
#X obj 425 305 throw~ kick;
#N canvas 0 50 450 300 scope 0;
#X array scope 5120 float 2;
#X coords 0 1 5120 -1 320 60 1;
#X restore 185 345 pd scope;
#X obj 15 325 catch~ kick;
#X obj 111 325 r rst;
#X obj 25 355 tabwrite~ scope;
#X obj 15 385 throw~ mainLR;
#X connect 8 0 9 0;
#X connect 9 0 10 0;
#X connect 10 0 11 0;
#X connect 13 0 14 0;
#X connect 14 0 15 0;
#X connect 15 0 16 0;
#X connect 15 1 17 0;
#X connect 15 2 18 0;
#X connect 16 0 19 0;
#X connect 17 0 19 0;
#X connect 19 0 20 0;
#X connect 21 0 22 0;
#X connect 22 0 23 0;
#X connect 23 0 27 0;
#X connect 23 0 34 0;
#X connect 24 0 25 0;
#X connect 25 0 26 1;
#X connect 26 0 27 1;
#X connect 27 0 28 0;
#X connect 29 0 30 0;
#X connect 30 0 31 0;
#X connect 31 0 33 1;
#X connect 32 0 33 0;
#X connect 33 0 34 1;
#X connect 34 0 35 0;
#X connect 35 0 36 0;
#X connect 36 0 37 0;
#X connect 39 0 41 0;
#X connect 39 0 42 0;
#X connect 40 0 41 0;
#X restore 146 10 pd sub;
#X text 285 80 Volume control;
#X obj 290 105 receive vol;
#X obj 290 135 clip 0 99;
#X floatatom 290 165 5 0 0 0 - - -;
#X obj 290 195 dbtorms;
#X obj 290 285 send mainVol;
#X text 425 80 Main Mix (stereo);
#X obj 430 105 catch~ mainL;
#X obj 448 135 catch~ mainLR;
#X obj 466 165 catch~ mainR;
#X obj 484 195 r mainVol;
#X obj 430 232 *~;
#X obj 466 232 *~;
#X obj 431 273 dac~;
#X text 7 6 Network Listener;
#X obj 12 31 loadbang;
#X msg 12 61 listen 3000;
#X msg 22 91 listen 0;
#X obj 12 121 netreceive 3000;
#X obj 22 151 print rx;
#X floatatom 114 151 5 0 0 0 - - -;
#X obj 290 255 line 0 5;
#X msg 290 225 \$1 70;
#X obj 472 303 env~;
#X obj 472 333 - 100;
#X obj 472 363 s mainVU;
#X obj 472 273 max~;
#X obj 571 107 vu 15 120 mainVU empty -1 -8 0 10 -66577 -1 1 0;
#X obj 53 258 list split 1;
#X obj 53 288 t b s;
#X obj 26 318 list store;
#X msg 111 318 symbol pd-\$1;
#X obj 26 348 list trim;
#X obj 86 378 send;
#X obj 12 212 s vol;
#X obj 156 212 s pd-sub;
#X obj 12 181 route vol send dsp;
#X text 10 403 "route vol send dsp": This makes it so incoming messages
can be more concise than the "\\\; destination ..." format for msg
boxes. "vol 0" becomes "\\\; vol 0" \, "dsp 1" becomes "\\\; pd dsp
1" \, "send foo ..." becomes "\\\; pd-foo ...". All other messages
\, like "..." \, become "\\\; pd-sub ...". Note that no prefix is needed
to send messages to pd-sub \, which is the whole point \, since that
happens very frequently.;
#X obj 156 181 r dsp;
#X msg 71 212 \; pd dsp \$1;
#X text 208 5 <-- this subcanvas receives messages sent by `s pd-sub`
to create and connect objects using the same syntax as .pd files.;
#X connect 2 0 3 0;
#X connect 3 0 4 0;
#X connect 4 0 5 0;
#X connect 5 0 23 0;
#X connect 8 0 12 0;
#X connect 9 0 12 0;
#X connect 9 0 13 0;
#X connect 10 0 13 0;
#X connect 11 0 12 1;
#X connect 11 0 13 1;
#X connect 12 0 14 0;
#X connect 12 0 27 0;
#X connect 13 0 14 1;
#X connect 13 0 27 1;
#X connect 16 0 17 0;
#X connect 17 0 19 0;
#X connect 18 0 19 0;
#X connect 19 0 20 0;
#X connect 19 0 37 0;
#X connect 19 1 21 0;
#X connect 22 0 6 0;
#X connect 23 0 22 0;
#X connect 24 0 25 0;
#X connect 25 0 26 0;
#X connect 27 0 24 0;
#X connect 29 0 30 0;
#X connect 29 1 31 1;
#X connect 30 0 31 0;
#X connect 30 1 32 0;
#X connect 31 0 33 0;
#X connect 32 0 34 1;
#X connect 33 0 34 0;
#X connect 37 0 35 0;
#X connect 37 1 29 0;
#X connect 37 2 40 0;
#X connect 37 3 36 0;
#X connect 39 0 40 0;
